<svg width="166" height="54" viewBox="0 0 166 54" fill="none" xmlns="http://www.w3.org/2000/svg">
<path fill-rule="evenodd" clip-rule="evenodd" d="M9.42185 0.941406H156.134C159.394 0.941406 160.574 1.30662 161.766 1.98488C162.943 2.65218 163.905 3.6839 164.527 4.94574C165.16 6.22399 165.501 7.4892 165.501 10.9718V43.0847C165.501 46.5673 165.16 47.8325 164.527 49.1108C163.905 50.3726 162.943 51.4043 161.766 52.0716C160.574 52.7499 159.394 53.1151 156.146 53.1151H9.40969C6.16159 53.1151 4.98157 52.7499 3.78939 52.0716C2.61252 51.4043 1.65027 50.3726 1.0279 49.1108C0.395312 47.8325 0.0546875 46.5673 0.0546875 43.0847V10.9718C0.0546875 7.4892 0.395312 6.22399 1.0279 4.94574C1.65027 3.6839 2.61252 2.65218 3.78939 1.98488C4.98157 1.30662 6.16159 0.941406 9.40969 0.941406H9.42185Z" fill="#33312C"/>
<path d="M36.9762 27.0675C37.0005 24.6284 38.1927 22.3849 40.127 21.1067C39.521 20.18 38.7215 19.4179 37.7922 18.8812C36.8628 18.3445 35.8294 18.048 34.7743 18.0154C32.5359 17.7545 30.3584 19.4502 29.2148 19.4502C28.047 19.4502 26.283 18.0415 24.3853 18.0806C23.1575 18.1235 21.9609 18.5064 20.9121 19.1921C19.8633 19.8778 18.9978 20.843 18.4 21.9936C15.8088 26.8066 17.7431 33.8631 20.2248 37.7501C21.4656 39.6414 22.9011 41.7674 24.811 41.6892C26.6602 41.6109 27.3657 40.424 29.592 40.424C31.8182 40.424 32.4629 41.6892 34.3972 41.65C36.3923 41.6109 37.6453 39.7327 38.8496 37.8153C39.7377 36.4588 40.4311 34.9588 40.8812 33.3805C39.7242 32.8555 38.7369 31.9769 38.0424 30.8543C37.348 29.7316 36.9772 28.4146 36.9762 27.0675ZM33.3145 15.4589C34.4023 14.0618 34.9391 12.2649 34.8108 10.4502C33.1442 10.6458 31.6114 11.4937 30.5165 12.8371C29.9776 13.494 29.5648 14.2584 29.3018 15.0865C29.0388 15.9146 28.9307 16.7902 28.9837 17.6632C29.8142 17.6721 30.6358 17.4783 31.3861 17.0964C32.1364 16.7144 32.7959 16.1545 33.3145 15.4589Z" fill="white"/>
<path d="M62.4626 35.6889H56.7085L55.3217 40.0715H52.8887L58.3387 23.8716H60.8812L66.3312 40.0715H63.8495L62.4626 35.6889ZM57.3046 33.6672H61.8666L59.616 26.5585H59.5552L57.3046 33.6672ZM78.107 34.1628C78.107 37.828 76.2823 40.1889 73.5086 40.1889C72.8085 40.2289 72.1121 40.0568 71.499 39.6924C70.8859 39.3279 70.3808 38.7858 70.0415 38.128H69.9929V43.9715H67.7302V28.2542H69.9199V30.2107H69.9564C70.311 29.5538 70.8254 29.0127 71.4446 28.6451C72.0639 28.2775 72.7647 28.0973 73.4721 28.1237C76.2701 28.1237 78.107 30.4976 78.107 34.1628ZM75.7835 34.1628C75.7835 31.7759 74.6278 30.1976 72.8638 30.1976C71.1486 30.1976 69.9807 31.802 69.9807 34.1628C69.9807 36.5367 71.1486 38.1411 72.876 38.1411C74.6278 38.1411 75.7835 36.5759 75.7835 34.1628ZM90.2235 34.1628C90.2235 37.828 88.3987 40.1889 85.6372 40.1889C84.9372 40.2289 84.2408 40.0568 83.6276 39.6924C83.0145 39.3279 82.5094 38.7858 82.1702 38.128H82.1094V43.9715H79.8588V28.2542H82.0485V30.2107H82.085C82.4386 29.5558 82.9511 29.016 83.568 28.6485C84.185 28.281 84.8832 28.0997 85.5886 28.1237C88.3866 28.1237 90.2235 30.4976 90.2235 34.1628ZM87.9121 34.1628C87.9121 31.7759 86.7564 30.1976 84.9925 30.1976C83.265 30.1976 82.1094 31.802 82.1094 34.1628C82.1094 36.5367 83.265 38.1411 84.9925 38.1411C86.7564 38.1411 87.9121 36.5759 87.9121 34.1628ZM98.2403 35.5585C98.4107 37.1628 99.8583 38.2193 101.853 38.2193C103.763 38.2193 105.138 37.1628 105.138 35.715C105.138 34.4498 104.299 33.7063 102.34 33.1846L100.394 32.6759C97.6078 31.9585 96.3304 30.5759 96.3304 28.3194C96.3304 25.515 98.5931 23.5977 101.817 23.5977C105.016 23.5977 107.206 25.515 107.279 28.3194H104.992C104.858 26.702 103.605 25.7107 101.793 25.7107C99.9678 25.7107 98.727 26.702 98.727 28.1498C98.727 29.2846 99.5177 29.9759 101.464 30.4846L103.131 30.915C106.233 31.6976 107.51 33.0411 107.51 35.4019C107.51 38.4411 105.26 40.3324 101.683 40.3324C98.3377 40.3324 96.0749 38.4802 95.929 35.5585H98.2403ZM112.401 25.4629V28.2542H114.493V30.1715H112.401V36.6932C112.401 37.6976 112.814 38.1672 113.739 38.1672C113.982 38.1672 114.225 38.1411 114.469 38.115V40.0193C114.067 40.1106 113.641 40.1498 113.228 40.1367C110.989 40.1367 110.126 39.2237 110.126 36.9411V30.1715H108.52V28.2542H110.126V25.4629H112.401ZM115.697 34.1628C115.697 30.4454 117.741 28.1107 120.928 28.1107C124.116 28.1107 126.159 30.4585 126.159 34.1628C126.159 37.8932 124.128 40.215 120.928 40.215C117.729 40.215 115.697 37.8932 115.697 34.1628ZM123.848 34.1628C123.848 31.6194 122.753 30.1194 120.928 30.1194C119.104 30.1194 118.009 31.6194 118.009 34.1628C118.009 36.7193 119.104 38.2063 120.928 38.2063C122.753 38.2063 123.848 36.7193 123.848 34.1628ZM128.021 28.2542H130.174V30.2628H130.223C130.527 28.9715 131.634 28.0846 132.875 28.1368C133.13 28.1368 133.398 28.1629 133.653 28.2281V30.4976C133.323 30.3858 132.978 30.3329 132.631 30.3411C132.301 30.3254 131.973 30.3867 131.667 30.521C131.362 30.6552 131.087 30.8591 130.863 31.1184C130.638 31.3778 130.469 31.6865 130.367 32.023C130.265 32.3595 130.232 32.7158 130.271 33.0672V40.0715H128.021V28.2542ZM144.066 36.6019C143.762 38.7411 141.816 40.215 139.322 40.215C136.123 40.215 134.14 37.9063 134.14 34.215C134.14 30.5107 136.135 28.1107 139.237 28.1107C142.278 28.1107 144.2 30.3541 144.2 33.9411V34.7628H136.415V34.9193C136.38 35.3539 136.432 35.7914 136.566 36.2029C136.701 36.6144 136.916 36.9905 137.197 37.3062C137.478 37.6219 137.818 37.8701 138.194 38.0342C138.571 38.1984 138.976 38.2748 139.383 38.2585C140.478 38.3628 141.512 37.6976 141.925 36.6019H144.066ZM136.427 33.0802H141.938C141.958 32.6894 141.902 32.2984 141.775 31.9315C141.648 31.5647 141.451 31.23 141.198 30.9484C140.944 30.6668 140.639 30.4443 140.302 30.2949C139.964 30.1455 139.602 30.0725 139.237 30.0802C138.495 30.0802 137.783 30.3963 137.258 30.9589C136.734 31.5215 136.439 32.2846 136.439 33.0802H136.427Z" fill="white"/>
<path d="M57.0242 11.6761C57.498 11.6411 57.9731 11.7192 58.4154 11.9048C58.8576 12.0903 59.256 12.3788 59.5818 12.7493C59.9076 13.1198 60.1527 13.5632 60.2994 14.0475C60.4462 14.5318 60.4909 15.0449 60.4304 15.55C60.4304 18.0283 59.1774 19.463 57.0242 19.463H54.3965V11.6761H57.0242ZM55.5278 18.3543H56.8903C57.2283 18.3753 57.5664 18.3155 57.8802 18.1794C58.194 18.0432 58.4757 17.8341 58.705 17.5671C58.9343 17.3 59.1054 16.9817 59.206 16.6352C59.3066 16.2886 59.3343 15.9224 59.2869 15.5631C59.3343 15.2037 59.3066 14.8375 59.206 14.4909C59.1054 14.1444 58.9343 13.8261 58.705 13.559C58.4757 13.292 58.194 13.0829 57.8802 12.9467C57.5664 12.8106 57.2283 12.7508 56.8903 12.7718H55.5278V18.3543ZM61.7077 16.5152C61.6834 16.1352 61.7322 15.754 61.8511 15.3951C61.97 15.0362 62.1565 14.7073 62.3989 14.4289C62.6413 14.1505 62.9346 13.9286 63.2604 13.7768C63.5862 13.625 63.9376 13.5467 64.2928 13.5467C64.6481 13.5467 64.9995 13.625 65.3253 13.7768C65.6511 13.9286 65.9443 14.1505 66.1868 14.4289C66.4292 14.7073 66.6157 15.0362 66.7345 15.3951C66.8534 15.754 66.9023 16.1352 66.8779 16.5152C66.9023 16.8952 66.8534 17.2765 66.7345 17.6354C66.6157 17.9943 66.4292 18.3231 66.1868 18.6015C65.9443 18.8799 65.6511 19.1019 65.3253 19.2536C64.9995 19.4054 64.6481 19.4837 64.2928 19.4837C63.9376 19.4837 63.5862 19.4054 63.2604 19.2536C62.9346 19.1019 62.6413 18.8799 62.3989 18.6015C62.1565 18.3231 61.97 17.9943 61.8511 17.6354C61.7322 17.2765 61.6834 16.8952 61.7077 16.5152ZM65.7587 16.5152C65.7587 15.25 65.2356 14.5065 64.2989 14.5065C63.35 14.5065 62.8269 15.25 62.8269 16.5152C62.8269 17.8065 63.35 18.5369 64.2867 18.5369C65.2356 18.5369 65.7587 17.7935 65.7587 16.5152ZM73.7391 19.463H72.6199L71.4885 15.1326H71.4034L70.272 19.463H69.1771L67.6565 13.5935H68.7514L69.7246 18.0674H69.8097L70.9411 13.5804H71.9751L73.1065 18.0674H73.1916L74.1648 13.5804H75.2475L73.7391 19.463ZM76.5127 13.5935H77.5589V14.5196H77.6441C77.9239 13.8283 78.5808 13.4109 79.2742 13.4761C79.5406 13.4534 79.8083 13.4954 80.0574 13.599C80.3065 13.7026 80.5307 13.8651 80.7131 14.0745C80.8955 14.2838 81.0315 14.5346 81.1109 14.8082C81.1904 15.0817 81.2113 15.371 81.172 15.6544V19.463H80.0771V15.9413C80.0771 15.0022 79.7122 14.5326 78.9093 14.5326C78.7278 14.522 78.5463 14.5539 78.3775 14.626C78.2086 14.6981 78.0564 14.8087 77.9314 14.9501C77.8064 15.0916 77.7116 15.2605 77.6536 15.4452C77.5956 15.6299 77.5757 15.8259 77.5954 16.0196V19.463H76.5127V13.5935ZM82.8994 11.2979H83.97V19.463H82.8873L82.8994 11.2979ZM85.4784 16.5152C85.4541 16.1352 85.5029 15.754 85.6218 15.3951C85.7407 15.0362 85.9272 14.7073 86.1696 14.4289C86.412 14.1505 86.7053 13.9286 87.0311 13.7768C87.3569 13.625 87.7083 13.5467 88.0635 13.5467C88.4188 13.5467 88.7702 13.625 89.096 13.7768C89.4218 13.9286 89.715 14.1505 89.9575 14.4289C90.1999 14.7073 90.3863 15.0362 90.5052 15.3951C90.6241 15.754 90.6729 16.1352 90.6486 16.5152C90.6729 16.8952 90.6241 17.2765 90.5052 17.6354C90.3863 17.9943 90.1999 18.3231 89.9575 18.6015C89.715 18.8799 89.4218 19.1019 89.096 19.2536C88.7702 19.4054 88.4188 19.4837 88.0635 19.4837C87.7083 19.4837 87.3569 19.4054 87.0311 19.2536C86.7053 19.1019 86.412 18.8799 86.1696 18.6015C85.9272 18.3231 85.7407 17.9943 85.6218 17.6354C85.5029 17.2765 85.4541 16.8952 85.4784 16.5152ZM89.5294 16.5152C89.5294 15.25 88.9942 14.5065 88.0696 14.5065C87.1207 14.5065 86.5976 15.25 86.5976 16.5152C86.5976 17.8065 87.1207 18.5369 88.0574 18.5369C88.9942 18.5369 89.5294 17.7935 89.5294 16.5152ZM91.78 17.7935C91.78 16.75 92.5099 16.137 93.8237 16.0457L95.3079 15.9544V15.4457C95.3079 14.8326 94.9186 14.4804 94.1765 14.4804C93.5683 14.4804 93.1546 14.7152 93.0452 15.1326H91.9868C92.1084 14.1152 92.9843 13.4761 94.2252 13.4761C95.5998 13.4761 96.3784 14.2065 96.3784 15.4457V19.463H95.3322V18.6283H95.247C94.8943 19.2413 94.2738 19.5935 93.6048 19.5543C93.3746 19.5799 93.1421 19.5534 92.9221 19.4766C92.7021 19.3998 92.4996 19.2743 92.3277 19.1084C92.1557 18.9425 92.0181 18.7397 91.9238 18.5132C91.8294 18.2867 91.7805 18.0415 91.78 17.7935ZM95.3079 17.2978V16.8022L93.9697 16.8935C93.2155 16.9457 92.8748 17.2326 92.8748 17.7413C92.8748 18.263 93.3006 18.5761 93.8845 18.5761C94.0569 18.5958 94.2311 18.5781 94.3969 18.524C94.5627 18.4699 94.7167 18.3805 94.8495 18.2612C94.9824 18.1419 95.0914 17.9951 95.1702 17.8296C95.249 17.664 95.2958 17.4832 95.3079 17.2978ZM97.8017 16.5152C97.8017 14.6631 98.6898 13.4891 100.077 13.4891C100.77 13.45 101.427 13.8544 101.755 14.5196H101.828V11.2979H102.923V19.463H101.877V18.5369H101.792C101.439 19.1891 100.782 19.5804 100.077 19.5543C98.6776 19.5543 97.8017 18.3804 97.8017 16.5152ZM98.9209 16.5152C98.9209 17.7674 99.4684 18.5109 100.381 18.5109C101.293 18.5109 101.853 17.7543 101.853 16.5283C101.853 15.3022 101.281 14.5326 100.381 14.5326C99.4684 14.5326 98.9209 15.2891 98.9209 16.5152ZM107.388 16.5152C107.364 16.1352 107.412 15.754 107.531 15.3951C107.65 15.0362 107.837 14.7073 108.079 14.4289C108.321 14.1505 108.615 13.9286 108.94 13.7768C109.266 13.625 109.618 13.5467 109.973 13.5467C110.328 13.5467 110.68 13.625 111.005 13.7768C111.331 13.9286 111.624 14.1505 111.867 14.4289C112.109 14.7073 112.296 15.0362 112.415 15.3951C112.534 15.754 112.582 16.1352 112.558 16.5152C112.582 16.8952 112.534 17.2765 112.415 17.6354C112.296 17.9943 112.109 18.3231 111.867 18.6015C111.624 18.8799 111.331 19.1019 111.005 19.2536C110.68 19.4054 110.328 19.4837 109.973 19.4837C109.618 19.4837 109.266 19.4054 108.94 19.2536C108.615 19.1019 108.321 18.8799 108.079 18.6015C107.837 18.3231 107.65 17.9943 107.531 17.6354C107.412 17.2765 107.364 16.8952 107.388 16.5152ZM111.439 16.5152C111.439 15.25 110.904 14.5065 109.979 14.5065C109.03 14.5065 108.507 15.25 108.507 16.5152C108.507 17.8065 109.03 18.5369 109.967 18.5369C110.904 18.5369 111.439 17.7935 111.439 16.5152ZM114.006 13.5935H115.04V14.5196H115.125C115.405 13.8283 116.062 13.4109 116.767 13.4761C117.033 13.4554 117.299 13.499 117.547 13.6035C117.794 13.708 118.017 13.8708 118.198 14.08C118.379 14.2891 118.514 14.5391 118.592 14.8116C118.671 15.0841 118.692 15.3721 118.653 15.6544V19.463H117.582V15.9413C117.582 15.0022 117.193 14.5326 116.39 14.5326C116.21 14.524 116.03 14.5573 115.862 14.6302C115.695 14.7032 115.544 14.8141 115.42 14.9553C115.297 15.0966 115.203 15.2648 115.146 15.4485C115.089 15.6322 115.069 15.827 115.088 16.0196V19.463H113.994V13.5935H114.006ZM124.772 12.1196V13.6196H125.952V14.5848H124.772V17.6109C124.772 18.2239 125.003 18.4978 125.538 18.4978L125.952 18.4717V19.4369C125.757 19.4761 125.563 19.4891 125.368 19.4891C124.151 19.4891 123.689 19.0326 123.689 17.9109V14.5848H122.813V13.6196H123.689V12.1196H124.772ZM127.424 11.2979H128.507V14.5326H128.592C128.884 13.8413 129.553 13.4109 130.258 13.4891C130.523 13.4733 130.787 13.5202 131.032 13.6263C131.278 13.7325 131.498 13.8953 131.678 14.1033C131.858 14.3113 131.993 14.5593 132.074 14.8297C132.154 15.1 132.178 15.386 132.144 15.6674V19.45H131.061V15.9544C131.061 15.0152 130.648 14.5457 129.893 14.5457C129.707 14.5277 129.519 14.5538 129.343 14.6221C129.168 14.6905 129.008 14.7994 128.876 14.9413C128.743 15.0831 128.642 15.2544 128.578 15.443C128.514 15.6315 128.49 15.8328 128.507 16.0326V19.463H127.424V11.2979ZM138.445 17.8717C138.298 18.4073 137.979 18.8703 137.546 19.1801C137.112 19.49 136.591 19.627 136.073 19.5674C135.713 19.5764 135.355 19.5017 135.025 19.3484C134.694 19.195 134.399 18.9667 134.158 18.6792C133.918 18.3916 133.738 18.0516 133.632 17.6825C133.526 17.3135 133.495 16.9241 133.543 16.5413C133.496 16.1566 133.526 15.7656 133.632 15.3947C133.738 15.0237 133.917 14.6814 134.157 14.3909C134.397 14.1004 134.692 13.8684 135.023 13.7106C135.353 13.5528 135.711 13.4728 136.073 13.4761C137.594 13.4761 138.506 14.5848 138.506 16.437V16.8283H134.65V16.9065C134.633 17.1222 134.658 17.3392 134.724 17.5438C134.79 17.7483 134.895 17.9358 135.033 18.0943C135.17 18.2527 135.337 18.3786 135.522 18.4638C135.708 18.549 135.908 18.5917 136.11 18.5891C136.633 18.6543 137.144 18.3674 137.411 17.8717H138.445ZM134.65 15.9804H137.411C137.425 15.784 137.4 15.5868 137.339 15.4012C137.278 15.2155 137.181 15.0456 137.055 14.9021C136.929 14.7587 136.777 14.6448 136.608 14.5677C136.439 14.4906 136.257 14.452 136.073 14.4544C135.885 14.4508 135.699 14.4879 135.525 14.5633C135.351 14.6388 135.192 14.751 135.059 14.8935C134.927 15.0359 134.822 15.2055 134.752 15.3923C134.681 15.579 134.647 15.7791 134.65 15.9804Z" fill="white"/>
</svg>
