<svg width="98" height="26" viewBox="0 0 98 26" fill="none" xmlns="http://www.w3.org/2000/svg">
<path d="M27.0505 25.626V21.4889H30.7917V25.626H27.0505ZM12.5134 25.626C9.97174 25.626 7.82205 25.2932 6.06429 24.6274C4.33029 23.9616 3.01197 22.9749 2.10933 21.6672C1.23046 20.3595 0.791016 18.7307 0.791016 16.781C0.791016 16.2104 0.826646 15.616 0.897906 14.9978C0.969167 14.3558 1.0523 13.7495 1.14732 13.1788C1.26609 12.5844 1.37298 12.0613 1.46799 11.6096C1.563 11.1578 1.63426 10.8249 1.68177 10.6109L6.3137 11.5026C6.24244 11.883 6.14743 12.3704 6.02866 12.9648C5.90989 13.5593 5.803 14.1894 5.70799 14.8551C5.61297 15.4971 5.56547 16.1153 5.56547 16.7097C5.56547 17.637 5.70799 18.4097 5.99303 19.0279C6.30183 19.6461 6.75314 20.1455 7.34698 20.5259C7.94082 20.8825 8.68905 21.1322 9.59168 21.2749C10.4943 21.4175 11.5513 21.4889 12.7628 21.4889H25.0552L22.276 23.8071V0.410665H27.0505V25.626H12.5134ZM30.7917 25.626V21.4889C30.9342 21.4889 31.0411 21.5364 31.1123 21.6315C31.2074 21.7266 31.2786 21.8693 31.3261 22.0595C31.3974 22.2497 31.4449 22.4756 31.4686 22.7371C31.4924 22.9749 31.5043 23.2483 31.5043 23.5574C31.5043 23.8665 31.4924 24.1519 31.4686 24.4134C31.4449 24.675 31.3974 24.9008 31.3261 25.091C31.2786 25.2575 31.2074 25.3883 31.1123 25.4834C31.0411 25.5785 30.9342 25.626 30.7917 25.626ZM11.7651 12.1802C11.3138 11.6333 10.9694 11.1103 10.7319 10.6109C10.4943 10.1116 10.3755 9.57665 10.3755 9.006C10.3755 8.19759 10.5893 7.47239 11.0169 6.83042C11.4445 6.16467 12.0027 5.65346 12.6915 5.29681C13.3804 4.91638 14.1405 4.72616 14.9718 4.72616C15.4232 4.72616 15.8864 4.78561 16.3614 4.90449C16.8365 5.02338 17.2403 5.2017 17.5729 5.43947L16.3614 7.61505C16.1476 7.49617 15.9339 7.42484 15.7201 7.40106C15.5301 7.35351 15.3282 7.32973 15.1144 7.32973C14.5443 7.32973 14.1048 7.48428 13.7961 7.79338C13.4873 8.0787 13.3329 8.47102 13.3329 8.97034C13.3329 9.25566 13.3922 9.52909 13.511 9.79064C13.6298 10.0522 13.8079 10.3375 14.0455 10.6466L11.7651 12.1802ZM9.59168 12.4655V9.86197H18.2142V12.4655H9.59168Z" fill="#2060D4"/>
<path d="M30.7858 25.626V21.4889H37.3062L34.527 23.8071V7.72205H39.3015V25.626H30.7858ZM30.7858 25.626C30.6433 25.626 30.5364 25.5785 30.4652 25.4834C30.3701 25.3883 30.2989 25.2575 30.2514 25.091C30.1801 24.9008 30.1326 24.675 30.1089 24.4134C30.0851 24.1519 30.0732 23.8665 30.0732 23.5574C30.0732 23.1295 30.097 22.7728 30.1445 22.4875C30.192 22.1784 30.2751 21.9406 30.3939 21.7742C30.4889 21.584 30.6196 21.4889 30.7858 21.4889V25.626ZM34.527 4.44084V0.375H39.3015V4.44084H34.527Z" fill="#2060D4"/>
<path d="M48.0396 26V21.8628H52.1015V26H48.0396ZM43.3008 26V0.784637H48.0396V26H43.3008ZM52.1015 26V21.8628C52.244 21.8628 52.3509 21.9104 52.4221 22.0055C52.5171 22.1006 52.5884 22.2433 52.6359 22.4335C52.7072 22.6237 52.7547 22.8496 52.7784 23.1111C52.8022 23.3489 52.8141 23.6223 52.8141 23.9314C52.8141 24.2405 52.8022 24.5258 52.7784 24.7874C52.7547 25.0489 52.7072 25.2748 52.6359 25.465C52.5884 25.6315 52.5171 25.7622 52.4221 25.8573C52.3509 25.9524 52.244 26 52.1015 26Z" fill="#DA4722"/>
<path d="M73.1915 26V21.8628H76.9327V26H73.1915ZM52.0984 26C51.9559 26 51.849 25.9524 51.7777 25.8573C51.6827 25.7622 51.6114 25.6315 51.5639 25.465C51.4927 25.2748 51.4452 25.0489 51.4214 24.7874C51.3977 24.5258 51.3858 24.2405 51.3858 23.9314C51.3858 23.5034 51.4095 23.1468 51.457 22.8615C51.5045 22.5524 51.5877 22.3146 51.7065 22.1481C51.8015 21.9579 51.9321 21.8628 52.0984 21.8628V26ZM52.0984 26V21.8628H69.9848L68.417 23.1468V18.2963C68.417 17.0599 68.2864 16.0732 68.0251 15.3361C67.7638 14.599 67.36 14.064 66.8137 13.7311C66.2911 13.3983 65.626 13.2318 64.8184 13.2318H57.0154L54.0581 8.95199L55.8752 5.52812C56.089 5.12391 56.3265 4.68404 56.5878 4.20851C56.8491 3.73297 57.1935 3.16232 57.6211 2.49657C58.0486 1.83082 58.595 0.998628 59.2601 0L63.2506 2.24691C62.6331 3.17421 62.1342 3.94696 61.7542 4.56516C61.3741 5.15958 61.0535 5.68267 60.7922 6.13443C60.5309 6.58619 60.2933 7.03795 60.0796 7.48971L58.6544 10.1646L57.9417 9.09465H64.8184C66.3386 9.09465 67.6332 9.34431 68.7021 9.84362C69.771 10.3429 70.6261 11.0325 71.2675 11.9122C71.9326 12.792 72.4195 13.7787 72.7283 14.8724C73.0371 15.9662 73.1915 17.1075 73.1915 18.2963V26H52.0984ZM76.9327 26V21.8628C77.0752 21.8628 77.194 21.9104 77.289 22.0055C77.384 22.1006 77.4552 22.2433 77.5027 22.4335C77.5503 22.6237 77.5859 22.8496 77.6096 23.1111C77.6334 23.3489 77.6453 23.6223 77.6453 23.9314C77.6453 24.2405 77.6334 24.5258 77.6096 24.7874C77.5859 25.0489 77.5503 25.2748 77.5027 25.465C77.4552 25.6315 77.384 25.7622 77.289 25.8573C77.194 25.9524 77.0752 26 76.9327 26Z" fill="#DA4722"/>
<path d="M76.9421 26V21.8628H95.4342L93.2608 23.7174V17.155C93.2608 15.8711 93.1183 14.8724 92.8332 14.1591C92.5482 13.422 92.0494 12.9108 91.3367 12.6255C90.6479 12.3164 89.6859 12.1619 88.4507 12.1619C87.4768 12.1619 86.5148 12.2332 85.5646 12.3759C84.6383 12.4947 83.9138 12.6612 83.3912 12.8752L86.3485 10.0933C86.206 10.6401 86.0635 11.3297 85.9209 12.1619C85.8022 12.9941 85.6953 13.8857 85.6003 14.8368C85.5053 15.7641 85.4577 16.6795 85.4577 17.583C85.4577 18.4152 85.4934 19.283 85.5646 20.1866C85.6597 21.0901 85.7547 21.8866 85.8497 22.5761C85.9684 23.2657 86.0635 23.7412 86.1347 24.0027L81.6097 25.251C81.5147 24.9182 81.3959 24.3713 81.2534 23.6104C81.1109 22.8496 80.9802 21.946 80.8615 20.8999C80.7664 19.8537 80.7189 18.7481 80.7189 17.583C80.7189 16.3941 80.7783 15.2529 80.8971 14.1591C81.0158 13.0416 81.1465 12.043 81.289 11.1632C81.4553 10.2597 81.6097 9.53452 81.7522 8.98765C82.3223 8.77366 83.213 8.55967 84.4245 8.34568C85.6359 8.13169 86.978 8.02469 88.4507 8.02469C90.5885 8.02469 92.3581 8.3219 93.7596 8.91632C95.1848 9.51075 96.2418 10.4737 96.9307 11.8052C97.6433 13.1367 97.9996 14.9319 97.9996 17.1907V26H76.9421ZM76.9421 26C76.7996 26 76.6927 25.9524 76.6215 25.8573C76.5264 25.7622 76.4552 25.6315 76.4077 25.465C76.3364 25.2748 76.2889 25.0489 76.2652 24.7874C76.2414 24.5258 76.2295 24.2405 76.2295 23.9314C76.2295 23.5034 76.2533 23.1468 76.3008 22.8615C76.3483 22.5524 76.4314 22.3146 76.5502 22.1481C76.6452 21.9579 76.7758 21.8628 76.9421 21.8628V26Z" fill="#DA4722"/>
</svg>
