<svg width="166" height="54" viewBox="0 0 166 54" fill="none" xmlns="http://www.w3.org/2000/svg">
<path fill-rule="evenodd" clip-rule="evenodd" d="M9.62302 0.941406H156.335C159.595 0.941406 160.775 1.30662 161.967 1.98488C163.144 2.65218 164.106 3.6839 164.729 4.94574C165.361 6.22399 165.702 7.4892 165.702 10.9718V43.0847C165.702 46.5673 165.361 47.8325 164.729 49.1108C164.106 50.3726 163.144 51.4043 161.967 52.0716C160.775 52.7499 159.595 53.1151 156.347 53.1151H9.61086C6.36276 53.1151 5.18274 52.7499 3.99056 52.0716C2.81369 51.4043 1.85144 50.3726 1.22907 49.1108C0.596484 47.8325 0.255859 46.5673 0.255859 43.0847V10.9718C0.255859 7.4892 0.596484 6.22399 1.22907 4.94574C1.85144 3.6839 2.81369 2.65218 3.99056 1.98488C5.18274 1.30662 6.36276 0.941406 9.61086 0.941406H9.62302Z" fill="#33312C"/>
<path fill-rule="evenodd" clip-rule="evenodd" d="M19.428 39.7718L19.574 39.811C19.5246 39.8012 19.4759 39.7881 19.428 39.7718ZM40.2304 24.9023C40.7779 25.2284 41.1185 25.6589 41.228 26.1023L41.2523 26.2719C41.2036 26.7676 40.8508 27.2632 40.2183 27.6415L20.9973 39.3414C20.608 39.5892 20.2309 39.6936 19.9025 39.6936C19.5618 39.6936 19.2699 39.5762 19.0266 39.3545L18.9536 39.2762C18.6347 38.8638 18.4738 38.337 18.5035 37.8023V14.7415C18.5035 14.0372 18.6981 13.5024 19.0266 13.1763C19.2699 12.9546 19.5618 12.8372 19.9025 12.8372C20.2309 12.8372 20.608 12.9546 20.9973 13.1894L40.2183 24.9023H40.2304ZM19.8903 12.6807H20.0606H19.8903ZM131.566 39.2371H133.829V22.9328H131.566V39.2371ZM152.004 28.8023L149.4 35.8719H149.327L146.627 28.8023H144.182L148.233 38.6892L145.921 44.1805H148.293L154.534 28.8023H152.004ZM139.133 37.3849C138.391 37.3849 137.357 36.9936 137.357 36.0023C137.357 34.7371 138.646 34.2545 139.753 34.2545C140.763 34.2545 141.225 34.4893 141.834 34.8023C141.751 35.5103 141.432 36.1623 140.936 36.6372C140.439 37.1121 139.798 37.3778 139.133 37.3849ZM139.413 28.4502C137.758 28.4502 136.067 29.2328 135.362 30.9415L137.369 31.8545C137.807 30.9415 138.61 30.6545 139.437 30.6545C140.617 30.6545 141.809 31.398 141.834 32.7414V32.911C141.103 32.4962 140.288 32.2812 139.462 32.2849C137.296 32.2849 135.082 33.5632 135.082 35.9501C135.082 38.1414 136.87 39.5501 138.853 39.5501C140.386 39.5501 141.225 38.8066 141.761 37.9458H141.834V39.211H144.023V32.9501C144.023 30.0675 142.004 28.4502 139.401 28.4502H139.413ZM125.374 30.798H122.15V25.1893H125.374C127.077 25.1893 128.051 26.7023 128.051 27.9936C128.051 29.2589 127.077 30.7849 125.374 30.7849V30.798ZM125.326 22.9328H119.876V39.2371H122.15V33.0545H125.313C127.832 33.0545 130.301 31.098 130.301 27.9936C130.301 24.8893 127.832 22.9328 125.313 22.9328H125.326ZM95.6548 37.3849C94.0977 37.3849 92.7838 35.9762 92.7838 34.0458C92.7838 32.0893 94.0977 30.6545 95.6548 30.6545C97.212 30.6545 98.4285 32.0893 98.4285 34.0458C98.4285 35.9762 97.212 37.3849 95.6548 37.3849ZM98.2703 29.7154H98.1852C97.8393 29.3129 97.4173 28.9942 96.9474 28.7806C96.4775 28.5669 95.9705 28.4631 95.4602 28.4762C94.121 28.5305 92.8543 29.1428 91.9297 30.183C91.0051 31.2231 90.4953 32.6089 90.509 34.0458C90.4987 35.4778 91.0106 36.8575 91.9356 37.8906C92.8605 38.9238 94.1253 39.5286 95.4602 39.5762C95.9729 39.5903 96.4823 39.4845 96.9529 39.266C97.4235 39.0475 97.844 38.7216 98.1852 38.311H98.2703V39.1066C98.2703 41.2327 97.212 42.3675 95.5088 42.3675C94.9395 42.3558 94.3864 42.1621 93.9204 41.8112C93.4544 41.4603 93.0968 40.9682 92.8933 40.3979L90.9226 41.2718C91.2939 42.2478 91.9291 43.0823 92.7464 43.668C93.5637 44.2538 94.5258 44.564 95.5088 44.5588C98.173 44.5588 100.424 42.8631 100.424 38.7805V28.8154H98.2703V29.7284V29.7154ZM101.993 39.2371H104.268V22.9328H101.993V39.2371ZM107.613 33.8501C107.588 33.4467 107.639 33.042 107.762 32.6598C107.885 32.2777 108.078 31.9256 108.33 31.6244C108.581 31.3232 108.886 31.0787 109.227 30.9055C109.568 30.7322 109.937 30.6336 110.314 30.6154C111.226 30.6154 111.993 31.098 112.236 31.7893L107.613 33.8632V33.8501ZM114.669 32.011C114.243 30.7719 112.929 28.4893 110.241 28.4893C107.577 28.4893 105.363 30.7197 105.363 34.0197C105.363 37.1371 107.552 39.5762 110.496 39.5762C112.868 39.5762 114.243 38.011 114.815 37.111L113.051 35.8588C112.785 36.3289 112.41 36.7167 111.962 36.9843C111.514 37.2519 111.009 37.3899 110.496 37.3849C109.341 37.3849 108.513 36.824 107.99 35.7023L114.912 32.6371L114.669 32.011ZM59.5608 30.1849V32.5327H64.804C64.7283 33.6353 64.3084 34.6784 63.6118 35.4936C63.0847 36.0695 62.4506 36.5203 61.7507 36.8169C61.0508 37.1135 60.3006 37.2492 59.5487 37.2153C58.7863 37.2137 58.0318 37.0499 57.3288 36.7336C56.6258 36.4172 55.9883 35.9545 55.4532 35.3723C54.918 34.79 54.4959 34.0998 54.2112 33.3415C53.9265 32.5832 53.7849 31.7719 53.7946 30.9545C53.7802 29.7408 54.0994 28.5495 54.7123 27.529C55.3252 26.5085 56.2047 25.704 57.2412 25.2158C58.2776 24.7276 59.4252 24.5773 60.5407 24.7837C61.6563 24.9901 62.6905 25.5439 63.5145 26.3763L65.0595 24.7197C64.3344 23.9508 63.4735 23.3448 62.5273 22.9372C61.581 22.5296 60.5683 22.3285 59.5487 22.3458C57.4079 22.3456 55.353 23.2484 53.8279 24.8592C52.3028 26.47 51.43 28.6594 51.398 30.9545C51.43 33.2496 52.3028 35.439 53.8279 37.0498C55.353 38.6606 57.4079 39.5634 59.5487 39.5632C61.9452 39.5632 63.7456 38.7284 65.1568 37.1501C66.4358 35.6516 67.117 33.6759 67.0546 31.6458C67.0546 31.098 67.0181 30.6023 66.9329 30.1849H59.5487H59.5608ZM73.0276 37.3849C71.4583 37.3849 70.108 36.0023 70.108 34.0197C70.108 32.0241 71.4583 30.6675 73.0276 30.6675C74.6091 30.6675 75.9473 32.0241 75.9473 34.0197C75.9473 36.0023 74.6091 37.3849 73.0276 37.3849ZM73.0276 28.4762C72.3444 28.464 71.6658 28.5988 71.032 28.8727C70.3982 29.1466 69.8221 29.5541 69.3377 30.0709C68.8534 30.5878 68.4707 31.2036 68.2123 31.8818C67.9538 32.5601 67.8249 33.2871 67.8331 34.0197C67.8233 34.7534 67.951 35.4818 68.2087 36.1616C68.4664 36.8414 68.8488 37.4587 69.3333 37.977C69.8178 38.4952 70.3945 38.9038 71.0291 39.1786C71.6637 39.4533 72.3434 39.5885 73.0276 39.5762C73.7119 39.5885 74.3916 39.4533 75.0262 39.1786C75.6608 38.9038 76.2375 38.4952 76.722 37.977C77.2065 37.4587 77.5889 36.8414 77.8466 36.1616C78.1043 35.4818 78.232 34.7534 78.2222 34.0197C78.2304 33.2871 78.1015 32.5601 77.843 31.8818C77.5846 31.2036 77.2019 30.5878 76.7175 30.0709C76.2332 29.5541 75.6571 29.1466 75.0233 28.8727C74.3895 28.5988 73.7109 28.464 73.0276 28.4762ZM84.3656 37.3849C82.7841 37.3849 81.4459 36.0023 81.4459 34.0197C81.4459 32.0241 82.7841 30.6675 84.3656 30.6675C85.9227 30.6675 87.2852 32.0241 87.2852 34.0197C87.2852 36.0023 85.9227 37.3849 84.3656 37.3849ZM84.3656 28.4762C83.6823 28.464 83.0037 28.5988 82.3699 28.8727C81.7361 29.1466 81.16 29.5541 80.6757 30.0709C80.1913 30.5878 79.8086 31.2036 79.5502 31.8818C79.2917 32.5601 79.1628 33.2871 79.1711 34.0197C79.1612 34.7534 79.2889 35.4818 79.5466 36.1616C79.8043 36.8414 80.1867 37.4587 80.6712 37.977C81.1558 38.4952 81.7324 38.9038 82.367 39.1786C83.0017 39.4533 83.6813 39.5885 84.3656 39.5762C85.0499 39.5885 85.7295 39.4533 86.3641 39.1786C86.9987 38.9038 87.5754 38.4952 88.0599 37.977C88.5444 37.4587 88.9268 36.8414 89.1845 36.1616C89.4422 35.4818 89.57 34.7534 89.5601 34.0197C89.5683 33.2871 89.4394 32.5601 89.1809 31.8818C88.9225 31.2036 88.5398 30.5878 88.0555 30.0709C87.5711 29.5541 86.995 29.1466 86.3612 28.8727C85.7274 28.5988 85.0488 28.464 84.3656 28.4762Z" fill="white"/>
<path fill-rule="evenodd" clip-rule="evenodd" d="M58.102 14.1547C58.102 15.1329 57.8344 15.9155 57.287 16.5025C56.6787 17.1938 55.8637 17.5459 54.8783 17.5459C53.9294 17.5459 53.1143 17.1938 52.4452 16.4894C52.1237 16.1497 51.8704 15.743 51.701 15.2943C51.5315 14.8457 51.4495 14.3646 51.4599 13.8807C51.4599 12.8373 51.7883 11.9503 52.4574 11.246C53.1143 10.5416 53.9172 10.1895 54.8783 10.1895C55.3405 10.1895 55.7907 10.2938 56.2164 10.4895C56.6544 10.6851 56.995 10.946 57.2505 11.2721L56.6665 11.8851C56.4471 11.6096 56.172 11.3912 55.8622 11.2466C55.5524 11.1019 55.2159 11.0348 54.8783 11.0503C54.1849 11.0503 53.5888 11.3112 53.0778 11.8329C52.5791 12.3547 52.3236 13.0329 52.3236 13.8677C52.3236 14.7025 52.5669 15.3807 53.0778 15.9025C53.5888 16.4242 54.1727 16.6851 54.8783 16.6851C55.6082 16.6851 56.2164 16.4242 56.703 15.9025C57.0193 15.5503 57.214 15.0807 57.2626 14.4677H54.8783V13.6199H58.0534C58.0899 13.8025 58.102 13.9851 58.102 14.1416" fill="white"/>
<path fill-rule="evenodd" clip-rule="evenodd" d="M58.1018 14.1549H57.9923C57.9923 15.1201 57.7247 15.8505 57.2138 16.4244C56.6055 17.0896 55.8391 17.4288 54.8781 17.4288C53.9535 17.4288 53.1749 17.0896 52.5302 16.4114C52.2147 16.0816 51.9665 15.6854 51.8011 15.2476C51.6357 14.8098 51.5567 14.34 51.5691 13.8679C51.5691 12.8505 51.8854 12.0157 52.5423 11.3244C52.8467 10.9935 53.2108 10.7325 53.6124 10.5576C54.014 10.3827 54.4447 10.2974 54.8781 10.307C55.3282 10.307 55.7661 10.3984 56.1797 10.594C56.5933 10.7897 56.9096 11.0375 57.1651 11.3505L57.2503 11.2723L57.1651 11.194L56.5933 11.807L56.6663 11.8853L56.7515 11.8201C56.3014 11.2331 55.6566 10.9331 54.8781 10.9331C54.1481 10.9331 53.5277 11.207 53.0046 11.7549C52.4815 12.2896 52.2139 13.007 52.2139 13.8679C52.2139 14.7288 52.4815 15.4331 53.0046 15.9809C53.5277 16.5288 54.1603 16.8027 54.8781 16.8027C55.6323 16.8027 56.277 16.5288 56.788 15.9809C57.1286 15.6157 57.3232 15.107 57.3719 14.4809V14.3505H54.9997V13.7375H58.0653V13.6201L57.9558 13.6462C57.9923 13.8157 58.0045 13.9853 58.0045 14.1549H58.2235C58.2235 13.9722 58.2113 13.7896 58.1748 13.607L58.1626 13.5027H54.7564V14.5853H57.2503V14.4679H57.1286C57.0921 15.0549 56.9096 15.4983 56.6177 15.8114C56.1432 16.3201 55.5715 16.5679 54.8659 16.5679C54.1968 16.5679 53.625 16.307 53.1384 15.8114C52.6518 15.3157 52.4085 14.6766 52.4085 13.8679C52.4085 13.0592 52.6518 12.4331 53.1384 11.9114C53.625 11.4157 54.1968 11.1679 54.8659 11.1679C55.5958 11.1679 56.1554 11.4288 56.569 11.9636L56.6542 12.0679L57.3111 11.3505L57.3841 11.2853L57.3232 11.194C57.0318 10.8334 56.665 10.5519 56.2527 10.3723C55.8179 10.1743 55.3504 10.0722 54.8781 10.0723C53.9048 10.0723 53.0533 10.4375 52.3842 11.1679C52.0495 11.516 51.785 11.9341 51.6071 12.3963C51.4293 12.8585 51.3418 13.3549 51.3502 13.8549C51.3502 14.9244 51.6908 15.8375 52.3842 16.5679C52.7095 16.9204 53.0984 17.1983 53.5272 17.3844C53.956 17.5705 54.4156 17.6611 54.8781 17.6505C55.8878 17.6505 56.7272 17.2853 57.3597 16.5679L57.2868 16.4896L57.3597 16.5809C57.9315 15.9679 58.2113 15.1462 58.2113 14.1418H58.1018V14.1549ZM63.1504 11.207H60.1577V13.4505H62.8584V14.2853H60.1577V16.5288H63.1504V17.3896H59.3183V10.3462H63.1504V11.207Z" fill="white"/>
<path fill-rule="evenodd" clip-rule="evenodd" d="M63.1505 11.2068V11.0894H60.0484V13.5676H62.749V14.1676H60.0484V16.6459H63.041V17.272H59.428V10.4633H63.041V11.2068H63.1505V11.0894V11.2198H63.26V10.2285H59.209V17.5067H63.26V16.4111H60.2674V14.4024H62.968V13.3328H60.2674V11.3242H63.26V11.2068H63.1383H63.1505ZM66.7027 17.3894H65.8633V11.2068H64.0386V10.3459H68.5397V11.2068H66.7149V17.3894" fill="white"/>
<path fill-rule="evenodd" clip-rule="evenodd" d="M66.7018 17.3894V17.272H65.9719V11.0894H64.1472V10.4633H68.4293V11.0894H66.6045V17.3894H66.7018V17.272V17.4024H66.8235V11.3242H68.6483V10.2285H63.916V11.3242H65.753V17.5067H66.8113V17.3894H66.7018ZM71.8112 17.3894H72.6628V10.3459H71.8112V17.3894Z" fill="white"/>
<path fill-rule="evenodd" clip-rule="evenodd" d="M71.8126 17.3894H71.9221V10.4763H72.5425V17.272H71.8126V17.4024H71.9221H71.8004V17.5067H72.7737V10.2285H71.7031V17.5067H71.8126V17.3894ZM76.3989 17.3894H75.5473V11.2068H73.7225V10.3459H78.2236V11.2068H76.3989V17.3894Z" fill="white"/>
<path fill-rule="evenodd" clip-rule="evenodd" d="M76.3971 17.3895V17.2721H75.6672V11.0895H73.8303V10.4635H78.1124V11.0895H76.2877V17.3895H76.3971V17.2721V17.4026H76.5066V11.3243H78.3314V10.2287H73.6113V11.3243H75.4361V17.5069H76.5066V17.3895H76.385H76.3971ZM82.5771 15.8895C83.0637 16.4113 83.6719 16.6721 84.3653 16.6721C85.0709 16.6721 85.667 16.4113 86.1536 15.8895C86.6402 15.3678 86.8835 14.6895 86.8835 13.8678C86.8835 13.0461 86.6402 12.3808 86.1536 11.8461C85.667 11.3243 85.0709 11.0635 84.3653 11.0635C83.6598 11.0635 83.0637 11.3243 82.5771 11.8461C82.0904 12.3678 81.8471 13.0461 81.8471 13.8678C81.8471 14.6895 82.0904 15.3678 82.5771 15.8895ZM86.774 16.4765C86.1293 17.1939 85.3264 17.546 84.3653 17.546C83.4043 17.546 82.6014 17.1939 81.9566 16.4765C81.6396 16.1338 81.3901 15.7263 81.2229 15.2781C81.0557 14.83 80.9742 14.3504 80.9834 13.8678C80.9736 13.3863 81.0541 12.9076 81.22 12.46C81.3858 12.0124 81.6338 11.6051 81.9491 11.2621C82.2645 10.9191 82.6408 10.6475 83.0558 10.4633C83.4709 10.279 83.9162 10.1859 84.3653 10.1896C84.8145 10.1859 85.2598 10.279 85.6748 10.4633C86.0898 10.6475 86.4662 10.9191 86.7815 11.2621C87.0969 11.6051 87.3448 12.0124 87.5107 12.46C87.6766 12.9076 87.757 13.3863 87.7472 13.8678C87.7472 14.8982 87.4188 15.7721 86.774 16.4765Z" fill="white"/>
<path fill-rule="evenodd" clip-rule="evenodd" d="M82.5784 15.8897L82.5055 15.968C83.0164 16.5158 83.6368 16.8028 84.3667 16.8028C85.0966 16.8028 85.7292 16.5158 86.228 15.968C86.7389 15.4202 86.9944 14.7158 86.9944 13.881C86.9944 13.0202 86.7389 12.3158 86.228 11.768C85.9882 11.4988 85.699 11.2857 85.3787 11.142C85.0584 10.9984 84.7139 10.9273 84.3667 10.9332C83.6368 10.9332 83.0164 11.2202 82.5055 11.768C82.2521 12.0444 82.0535 12.373 81.9218 12.7339C81.7901 13.0948 81.7279 13.4806 81.7391 13.868C81.7391 14.7158 81.9945 15.4332 82.5055 15.968L82.6636 15.8115C82.4288 15.5561 82.2452 15.252 82.1238 14.9178C82.0025 14.5836 81.9461 14.2264 81.958 13.868C81.958 13.0854 82.2013 12.4332 82.6636 11.9245C82.8839 11.6799 83.1488 11.4865 83.4418 11.3563C83.7348 11.2262 84.0496 11.1621 84.3667 11.168C85.048 11.168 85.6076 11.4289 86.0699 11.9245C86.5443 12.4463 86.7754 13.0723 86.7754 13.881C86.7754 14.6636 86.5321 15.3028 86.0699 15.8115C85.6076 16.3202 85.048 16.568 84.3667 16.568C84.0496 16.5739 83.7348 16.5098 83.4418 16.3797C83.1488 16.2495 82.8839 16.0561 82.6636 15.8115L82.5784 15.8897ZM86.7754 16.4767L86.7024 16.3984C86.0698 17.0897 85.3034 17.4289 84.3667 17.4419C83.9329 17.4438 83.5032 17.3524 83.1029 17.1733C82.7026 16.9942 82.3397 16.7309 82.0359 16.399C81.732 16.0671 81.4932 15.6733 81.3335 15.2409C81.1739 14.8084 81.0967 14.346 81.1065 13.881C81.0951 13.415 81.1711 12.9512 81.3299 12.5172C81.4888 12.0832 81.7274 11.6879 82.0314 11.3546C82.3355 11.0213 82.6988 10.7568 83.1 10.5769C83.5011 10.397 83.9319 10.3052 84.3667 10.3071C85.3034 10.3071 86.0699 10.6463 86.6903 11.3506C87.3229 12.0419 87.6392 12.8767 87.6392 13.868C87.6392 14.8723 87.3229 15.7071 86.7024 16.3984L86.8606 16.568C87.5175 15.8376 87.8581 14.9245 87.8581 13.868C87.8679 13.3711 87.7846 12.8771 87.6132 12.4153C87.4419 11.9535 87.1858 11.5332 86.8603 11.1793C86.5348 10.8254 86.1464 10.5451 85.7181 10.355C85.2898 10.1649 84.8303 10.0688 84.3667 10.0724C83.9042 10.0705 83.446 10.1679 83.0191 10.3588C82.5922 10.5497 82.2053 10.8303 81.881 11.184C81.5568 11.5377 81.3019 11.9574 81.1313 12.4183C80.9606 12.8793 80.8777 13.3722 80.8875 13.868C80.8875 14.9245 81.2159 15.8245 81.885 16.568C82.5419 17.2984 83.3813 17.6636 84.3667 17.6636C85.3521 17.6636 86.1915 17.2984 86.8606 16.568L86.7754 16.4767ZM88.9408 17.3897V10.3463H89.9627L93.15 15.8245H93.1865L93.15 14.468V10.3463H94.0015V17.3897H93.1135L89.7681 11.6506H89.7316L89.7681 13.0071V17.3897H88.9287" fill="white"/>
<path fill-rule="evenodd" clip-rule="evenodd" d="M88.94 17.3894H89.0373V10.4763H89.8889L93.0883 15.9546H93.2951L93.2586 14.4676V10.4633H93.8791V17.272H93.1735L89.8281 11.5329H89.6213L89.6577 13.0068V17.272H88.9278V17.4024H89.0495H88.9278V17.5067H89.8767V13.0068L89.8402 11.6372H89.7307V11.7676H89.7672V11.6372L89.6821 11.7024L93.0518 17.5067H94.098V10.2285H93.0397V14.4676L93.0762 15.8241H93.1856V15.7067H93.1491V15.8372L93.2465 15.7589L90.0227 10.2285H88.8184V17.5067H88.94V17.3894Z" fill="white"/>
</svg>
