<svg width="51" height="21" viewBox="0 0 51 21" fill="none" xmlns="http://www.w3.org/2000/svg">
<path fill-rule="evenodd" clip-rule="evenodd" d="M6.69115 3.86787C7.63123 3.94717 8.57131 3.39207 9.15887 2.68827C9.73662 1.96465 10.1185 0.993215 10.0206 0.00195312C9.18824 0.0416045 8.16003 0.55706 7.57248 1.28068C7.03389 1.90517 6.57364 2.91626 6.69115 3.86787ZM17.8735 16.6346V1.18086H23.6021C26.5594 1.18086 28.6256 3.24268 28.6256 6.25611C28.6256 9.26954 26.5203 11.3512 23.5237 11.3512H20.2432V16.6346H17.8735ZM10.012 4.05477C9.18381 4.00652 8.42812 4.30689 7.81772 4.54951C7.42492 4.70565 7.09229 4.83786 6.83923 4.83786C6.55525 4.83786 6.2089 4.69858 5.82002 4.5422L5.82001 4.5422L5.81999 4.54219L5.81999 4.54219C5.31042 4.33727 4.72784 4.103 4.11691 4.11424C2.71658 4.13407 1.41417 4.93699 0.699318 6.21571C-0.76956 8.77316 0.317409 12.5598 1.73732 14.6414C2.43259 15.6723 3.26496 16.8024 4.36172 16.7627C4.84423 16.7443 5.19132 16.5952 5.55052 16.4409C5.96407 16.2633 6.39367 16.0787 7.06446 16.0787C7.71199 16.0787 8.1228 16.2585 8.51716 16.431C8.89213 16.595 9.25221 16.7526 9.78678 16.7429C10.9227 16.7231 11.6376 15.712 12.3328 14.6811C13.0831 13.5746 13.4129 12.4948 13.4629 12.3309L13.4688 12.312C13.4676 12.3107 13.4583 12.3064 13.4419 12.2989C13.1911 12.1826 11.274 11.2942 11.2557 8.91194C11.2372 6.91235 12.7762 5.89923 13.0185 5.73975C13.0332 5.73004 13.0432 5.72349 13.0477 5.72008C12.0684 4.25302 10.5408 4.09442 10.012 4.05477ZM32.9556 16.7542C34.4441 16.7542 35.8248 15.9909 36.4515 14.7816H36.5005V16.6352H38.694V8.94306C38.694 6.71272 36.9314 5.2754 34.2188 5.2754C31.7022 5.2754 29.8416 6.73255 29.773 8.73489H31.9078C32.0841 7.78328 32.9556 7.15879 34.1503 7.15879C35.5996 7.15879 36.4124 7.84276 36.4124 9.10166V9.95414L33.455 10.1326C30.7033 10.3011 29.2149 11.441 29.2149 13.4235C29.2149 15.4259 30.7523 16.7542 32.9556 16.7542ZM33.592 14.9212C32.3288 14.9212 31.5258 14.3066 31.5258 13.3649C31.5258 12.3935 32.2994 11.8284 33.7781 11.7392L36.4123 11.5707V12.443C36.4123 13.8903 35.198 14.9212 33.592 14.9212ZM45.9694 17.2389C45.0196 19.945 43.9326 20.8371 41.6216 20.8371C41.4453 20.8371 40.8577 20.8173 40.7207 20.7777V18.924C40.8675 18.9438 41.2299 18.9637 41.4159 18.9637C42.4637 18.9637 43.0513 18.5176 43.4136 17.3578L43.629 16.6739L39.6141 5.42305H42.0916L44.8825 14.5526H44.9314L47.7223 5.42305H50.1313L45.9694 17.2389ZM20.2453 3.20352H22.9774C25.0339 3.20352 26.209 4.31373 26.209 6.26651C26.209 8.21929 25.0339 9.33942 22.9677 9.33942H20.2453V3.20352Z" fill="black"/>
</svg>
