<svg width="40" height="41" viewBox="0 0 40 41" fill="none" xmlns="http://www.w3.org/2000/svg">
<path d="M31.6146 37.1673H8.28125C3.28125 37.1673 3.28125 34.9173 3.28125 32.1673V30.5007C3.28125 29.584 4.03125 28.834 4.94792 28.834H34.9479C35.8646 28.834 36.6146 29.584 36.6146 30.5007V32.1673C36.6146 34.9173 36.6146 37.1673 31.6146 37.1673Z" stroke="white" stroke-width="2.5" stroke-linecap="round" stroke-linejoin="round"/>
<path d="M34.5325 22.1673V28.834H5.44922V22.1673C5.44922 15.7673 9.96589 10.4173 15.9826 9.13398C16.8826 8.93398 17.8159 8.83398 18.7826 8.83398H21.1992C22.1659 8.83398 23.1159 8.93398 24.0159 9.13398C30.0326 10.434 34.5325 15.7673 34.5325 22.1673Z" stroke="white" stroke-width="2.5" stroke-linecap="round" stroke-linejoin="round"/>
<path d="M24.1654 8.00065C24.1654 8.40065 24.1154 8.76732 24.0154 9.13398C23.1154 8.93398 22.1654 8.83398 21.1987 8.83398H18.782C17.8154 8.83398 16.882 8.93398 15.982 9.13398C15.882 8.76732 15.832 8.40065 15.832 8.00065C15.832 5.70065 17.6987 3.83398 19.9987 3.83398C22.2987 3.83398 24.1654 5.70065 24.1654 8.00065Z" stroke="white" stroke-width="2.5" stroke-linecap="round" stroke-linejoin="round"/>
<path d="M25 18.834H15" stroke="white" stroke-width="2.5" stroke-linecap="round" stroke-linejoin="round"/>
</svg>
