<svg width="24" height="25" viewBox="0 0 24 25" fill="none" xmlns="http://www.w3.org/2000/svg">
<path d="M20.3227 12.2271C20.3223 11.605 20.2506 10.985 20.1091 10.3791L20.1043 10.3599C19.6667 8.54663 18.6305 6.93382 17.1631 5.78216C15.6957 4.63049 13.8829 4.00725 12.0175 4.01314L12.0079 4.01194H11.9851C10.1175 3.99831 8.30048 4.6188 6.83128 5.77192C5.36208 6.92504 4.32763 8.54256 3.8971 10.3599L3.8923 10.3791C3.55108 11.8526 3.62165 13.3915 4.0963 14.8275C4.16906 15.0498 4.2864 15.2549 4.44115 15.4303C4.5959 15.6057 4.7848 15.7477 4.9963 15.8475C5.23941 15.9656 5.50605 16.0271 5.7763 16.0275C5.9708 16.0275 6.16405 15.9963 6.3487 15.9351L7.0579 15.6903C7.44435 15.5634 7.77516 15.307 7.99444 14.9644C8.21373 14.6218 8.30806 14.214 8.2615 13.8099L8.0023 11.6019C7.9486 11.1928 7.75642 10.8144 7.45775 10.5297C7.15907 10.245 6.77191 10.0712 6.3607 10.0371L5.2591 9.96034C5.73812 8.57774 6.63493 7.37816 7.82547 6.52749C9.01602 5.67683 10.4415 5.21711 11.9047 5.21194H12.0079C13.4888 5.18806 14.939 5.63502 16.1496 6.48841C17.3601 7.3418 18.2684 8.55752 18.7435 9.96034L17.6335 10.0383C17.2225 10.074 16.836 10.2492 16.5384 10.535C16.2408 10.8208 16.0501 11.1999 15.9979 11.6091L15.7399 13.8171C15.6943 14.2194 15.7884 14.6251 16.0064 14.9662C16.2245 15.3072 16.5532 15.5629 16.9375 15.6903L17.6611 15.9399C17.7711 15.9687 17.8836 15.9868 17.9971 15.9939C17.4492 16.8585 16.7175 17.5917 15.8541 18.1413C14.9907 18.691 14.0167 19.0435 13.0015 19.1739C12.8989 19.0285 12.7633 18.9094 12.6058 18.8264C12.4484 18.7434 12.2735 18.6988 12.0955 18.6963C11.8906 18.6935 11.6887 18.7455 11.5107 18.8469C11.3327 18.9484 11.1851 19.0957 11.0832 19.2734C10.9812 19.4512 10.9287 19.6529 10.9311 19.8578C10.9335 20.0627 10.9906 20.2632 11.0966 20.4386C11.2025 20.614 11.3535 20.7578 11.5338 20.8551C11.7141 20.9525 11.9171 20.9998 12.1219 20.9922C12.3266 20.9847 12.5256 20.9224 12.6982 20.812C12.8708 20.7016 13.0108 20.5471 13.1035 20.3643C14.6179 20.1818 16.0508 19.5787 17.24 18.6234C18.4292 17.6682 19.3271 16.3989 19.8319 14.9595C19.8511 14.9151 19.8883 14.8815 19.9039 14.8347C20.1849 13.9946 20.3264 13.1142 20.3227 12.2283V12.2271ZM6.2683 11.2311C6.4041 11.2425 6.53197 11.2998 6.63081 11.3936C6.72964 11.4874 6.79352 11.6121 6.8119 11.7471L7.0687 13.9431C7.08339 14.0752 7.05199 14.2082 6.97982 14.3197C6.90765 14.4313 6.79915 14.5144 6.6727 14.5551L5.9671 14.7975C5.81835 14.8453 5.65701 14.8345 5.5159 14.7675C5.44963 14.7367 5.3904 14.6925 5.34189 14.6378C5.29339 14.5831 5.25663 14.519 5.2339 14.4495C4.8829 13.3837 4.79076 12.2496 4.9651 11.1411L6.2683 11.2311ZM18.4843 14.7675C18.3467 14.8343 18.1888 14.8463 18.0427 14.8011L17.3227 14.5527C17.1983 14.512 17.0916 14.4299 17.0204 14.3201C16.9493 14.2102 16.9179 14.0793 16.9315 13.9491L17.1895 11.7519C17.2066 11.6173 17.269 11.4925 17.3665 11.398C17.464 11.3036 17.5908 11.2452 17.7259 11.2323L19.0363 11.1411C19.2067 12.2181 19.122 13.32 18.7891 14.3583C18.7855 14.3667 18.7783 14.3727 18.7759 14.3823C18.7543 14.4483 18.7207 14.5071 18.6967 14.5743C18.645 14.6563 18.572 14.7226 18.4855 14.7663L18.4843 14.7675ZM12.0007 9.09274C11.8441 9.09368 11.6934 9.03339 11.5807 8.92474C11.5237 8.86818 11.4784 8.80088 11.4475 8.72674C11.4166 8.65259 11.4007 8.57306 11.4007 8.49274C11.3991 8.41407 11.4155 8.33608 11.4487 8.26474C11.4768 8.19116 11.5221 8.12534 11.5807 8.07274C11.6943 7.96557 11.8445 7.90587 12.0007 7.90587C12.1569 7.90587 12.3071 7.96557 12.4207 8.07274C12.4785 8.12622 12.5243 8.19125 12.5553 8.2636C12.5864 8.33596 12.6018 8.41403 12.6007 8.49274C12.6006 8.57305 12.5847 8.65256 12.5538 8.7267C12.5229 8.80084 12.4777 8.86814 12.4207 8.92474C12.308 9.03339 12.1573 9.09368 12.0007 9.09274ZM10.0207 8.07274C10.0785 8.12622 10.1243 8.19125 10.1553 8.2636C10.1864 8.33596 10.2018 8.41403 10.2007 8.49274C10.2006 8.57305 10.1847 8.65256 10.1538 8.7267C10.1229 8.80084 10.0777 8.86814 10.0207 8.92474C9.90798 9.03339 9.75725 9.09368 9.6007 9.09274C9.52191 9.09571 9.4436 9.07922 9.3727 9.04474C9.30069 9.01927 9.23515 8.9783 9.1807 8.92474C9.12366 8.86818 9.07839 8.80088 9.0475 8.72674C9.0166 8.65259 9.0007 8.57306 9.0007 8.49274C8.99959 8.41403 9.01504 8.33596 9.04605 8.2636C9.07706 8.19125 9.12293 8.12622 9.1807 8.07274C9.29428 7.96557 9.44453 7.90587 9.6007 7.90587C9.75686 7.90587 9.90711 7.96557 10.0207 8.07274ZM13.9807 8.92474C13.9192 8.86977 13.8737 8.79932 13.8487 8.72074C13.8142 8.64983 13.7977 8.57153 13.8007 8.49274C13.7996 8.41403 13.815 8.33596 13.846 8.2636C13.8771 8.19125 13.9229 8.12622 13.9807 8.07274C14.0929 7.9628 14.2436 7.90122 14.4007 7.90122C14.5577 7.90122 14.7085 7.9628 14.8207 8.07274C14.8785 8.12622 14.9243 8.19125 14.9553 8.2636C14.9864 8.33596 15.0018 8.41403 15.0007 8.49274C15.0034 8.5715 14.9869 8.64974 14.9527 8.72074C14.9277 8.7993 14.8821 8.86973 14.8207 8.92474C14.7074 9.03245 14.557 9.09251 14.4007 9.09251C14.2444 9.09251 14.094 9.03245 13.9807 8.92474Z" fill="white"/>
</svg>
