<svg width="51" height="21" viewBox="0 0 51 21" fill="none" xmlns="http://www.w3.org/2000/svg">
<path fill-rule="evenodd" clip-rule="evenodd" d="M23.3874 16.5189V10.477H26.5058C27.7836 10.477 28.8621 10.0488 29.7414 9.20435L29.9524 8.99026C31.5584 7.24192 31.4529 4.5183 29.7414 2.90078C28.8856 2.04445 27.7133 1.5806 26.5058 1.60439H21.5V16.5189H23.3874ZM23.3891 8.64569V3.43633H26.5548C27.2349 3.43633 27.8797 3.69799 28.3605 4.17373C29.3805 5.17278 29.404 6.83788 28.4191 7.87261C27.9384 8.38404 27.2583 8.66948 26.5548 8.64569H23.3891ZM38.7565 7.11153C37.9476 6.36223 36.8457 5.98164 35.4506 5.98164C33.657 5.98164 32.3088 6.64768 31.4179 7.96786L33.0825 9.02638C33.6921 8.12247 34.5245 7.67052 35.5796 7.67052C36.2478 7.67052 36.8926 7.92029 37.3966 8.37224C37.889 8.80041 38.1704 9.41887 38.1704 10.073V10.5131C37.4435 10.1087 36.5291 9.89461 35.4037 9.89461C34.0907 9.89461 33.0357 10.2038 32.2502 10.8342C31.4648 11.4646 31.0662 12.2971 31.0662 13.3556C31.0427 14.319 31.453 15.2348 32.1799 15.8533C32.9184 16.5193 33.8563 16.8523 34.9582 16.8523C36.2595 16.8523 37.2911 16.2695 38.0766 15.104H38.1586V16.5193H39.964V10.2276C39.964 8.90745 39.5654 7.86082 38.7565 7.11153ZM33.6343 14.64C33.2474 14.3546 33.0129 13.8907 33.0129 13.3912C33.0129 12.8322 33.2709 12.3684 33.775 11.9997C34.2909 11.631 34.9358 11.4407 35.6979 11.4407C36.7532 11.4288 37.5739 11.6666 38.1602 12.1424C38.1602 12.9511 37.8436 13.6529 37.2222 14.2475C36.6594 14.8184 35.8973 15.1396 35.1 15.1396C34.5723 15.1514 34.0564 14.973 33.6343 14.64ZM44.0205 21.003L50.3276 6.31445H48.276L45.357 13.6409H45.3218L42.3324 6.31445H40.2808L44.4191 15.865L42.0745 21.003H44.0205Z" fill="#3C4043"/>
<path d="M16.8741 9.16614C16.8741 8.58336 16.8272 8.00058 16.7334 7.42969H8.77344V10.7242H13.3337C13.1462 11.7827 12.5366 12.7342 11.6456 13.3289V15.4697H14.3654C15.9597 13.983 16.8741 11.7827 16.8741 9.16614Z" fill="#4285F4"/>
<path d="M8.77625 17.5392C11.0505 17.5392 12.9731 16.778 14.3682 15.4697L11.6484 13.3289C10.8864 13.8522 9.91339 14.1496 8.77625 14.1496C6.5723 14.1496 4.70832 12.6391 4.04011 10.6172H1.23828V12.8294C2.6685 15.7195 5.58756 17.5392 8.77625 17.5392Z" fill="#34A853"/>
<path d="M4.04006 10.6177C3.68831 9.55916 3.68831 8.40548 4.04006 7.33507V5.13477H1.23779C0.0301129 7.54915 0.0301129 10.4036 1.23779 12.818L4.04006 10.6177Z" fill="#FBBC04"/>
<path d="M8.77625 3.80228C9.98373 3.77849 11.1443 4.24234 12.0118 5.08678L14.4268 2.63672C12.8911 1.18571 10.8747 0.38884 8.77625 0.412627C5.58756 0.412627 2.6685 2.24423 1.23828 5.13436L4.04011 7.34655C4.70832 5.31276 6.5723 3.80228 8.77625 3.80228Z" fill="#EA4335"/>
</svg>
