<svg width="41" height="36" viewBox="0 0 41 36" fill="none" xmlns="http://www.w3.org/2000/svg">
<path fill-rule="evenodd" clip-rule="evenodd" d="M5.46798 24.4824H2.35675C2.14385 24.4824 1.96277 24.6372 1.92957 24.8473L0.671233 32.8254C0.646222 32.9829 0.768139 33.1248 0.927824 33.1248H2.41315C2.62606 33.1248 2.80713 32.97 2.84033 32.7595L3.17972 30.6077C3.21246 30.397 3.39398 30.2424 3.60644 30.2424H4.59135C6.64083 30.2424 7.82357 29.2506 8.13262 27.2854C8.27178 26.4256 8.13851 25.75 7.73578 25.2767C7.29367 24.7574 6.50925 24.4824 5.46798 24.4824ZM5.82693 27.3963C5.65682 28.5127 4.80381 28.5127 3.97903 28.5127H3.50953L3.8389 26.4277C3.85846 26.3018 3.96764 26.209 4.09503 26.209H4.31021C4.87204 26.209 5.40209 26.209 5.67598 26.5292C5.83914 26.7203 5.88924 27.0041 5.82693 27.3963ZM14.7682 27.3605H13.2783C13.1514 27.3605 13.0417 27.4534 13.0221 27.5795L12.9562 27.9961L12.852 27.8452C12.5295 27.377 11.8103 27.2205 11.0924 27.2205C9.44589 27.2205 8.03978 28.4675 7.76588 30.2168C7.62357 31.0892 7.82588 31.9235 8.32083 32.5054C8.77494 33.0403 9.42462 33.2633 10.1975 33.2633C11.524 33.2633 12.2598 32.4102 12.2598 32.4102L12.1933 32.8243C12.1682 32.9827 12.2901 33.1245 12.4488 33.1245H13.7909C14.0044 33.1245 14.1844 32.9698 14.2181 32.7593L15.0234 27.6599C15.0488 27.5031 14.9274 27.3605 14.7682 27.3605ZM12.6914 30.2603C12.5476 31.1115 11.872 31.6829 11.0105 31.6829C10.5779 31.6829 10.232 31.5441 10.0101 31.2812C9.78989 31.0201 9.7061 30.6483 9.7762 30.2344C9.91052 29.3904 10.5975 28.8005 11.4459 28.8005C11.8688 28.8005 12.2128 28.941 12.4394 29.2062C12.6663 29.4742 12.7564 29.8481 12.6914 30.2603ZM21.2059 27.3603H22.7032C22.9129 27.3603 23.0352 27.5955 22.916 27.7675L17.9364 34.9553C17.8558 35.0717 17.723 35.141 17.5811 35.141H16.0857C15.8752 35.141 15.7522 34.9039 15.8741 34.7315L17.4246 32.5429L15.7756 27.7033C15.7185 27.5351 15.8427 27.3603 16.0217 27.3603H17.4929C17.684 27.3603 17.8526 27.4858 17.9078 27.6687L18.783 30.5917L20.848 27.55C20.9289 27.4313 21.0632 27.3603 21.2059 27.3603Z" fill="#253B80"/>
<path fill-rule="evenodd" clip-rule="evenodd" d="M37.4383 32.8258L38.7151 24.7018C38.7347 24.5757 38.844 24.4828 38.9709 24.4824H40.4084C40.5671 24.4824 40.689 24.6247 40.664 24.7822L39.4048 32.7599C39.372 32.9704 39.1909 33.1252 38.9776 33.1252H37.6938C37.5351 33.1252 37.4132 32.9833 37.4383 32.8258ZM27.6595 24.4828H24.5477C24.3353 24.4828 24.1542 24.6376 24.121 24.8477L22.8626 32.8258C22.8376 32.9833 22.9595 33.1252 23.1184 33.1252H24.7151C24.8635 33.1252 24.9904 33.017 25.0136 32.8696L25.3707 30.6081C25.4035 30.3974 25.585 30.2429 25.7974 30.2429H26.7818C28.8317 30.2429 30.0142 29.2511 30.3235 27.2858C30.4631 26.426 30.329 25.7504 29.9265 25.2772C29.4846 24.7578 28.7008 24.4828 27.6595 24.4828ZM28.0185 27.3967C27.8488 28.5132 26.9957 28.5132 26.1704 28.5132H25.7014L26.0313 26.4281C26.0509 26.3022 26.1591 26.2094 26.2869 26.2094H26.502C27.0635 26.2094 27.594 26.2094 27.8677 26.5296C28.0311 26.7207 28.0808 27.0045 28.0185 27.3967ZM36.9589 27.361H35.47C35.342 27.361 35.2334 27.4538 35.2143 27.5799L35.1484 27.9965L35.0437 27.8456C34.7212 27.3774 34.0025 27.221 33.2846 27.221C31.638 27.221 30.2324 28.4679 29.9585 30.2172C29.8166 31.0896 30.018 31.9239 30.513 32.5058C30.9679 33.0408 31.6168 33.2637 32.3896 33.2637C33.7161 33.2637 34.4517 32.4106 34.4517 32.4106L34.3854 32.8248C34.3604 32.9831 34.4823 33.125 34.642 33.125H35.9835C36.1959 33.125 36.377 32.9702 36.4103 32.7597L37.2159 27.6603C37.2406 27.5035 37.1187 27.361 36.9589 27.361ZM34.8823 30.2607C34.7393 31.1119 34.0629 31.6833 33.2012 31.6833C32.7694 31.6833 32.4229 31.5445 32.2008 31.2816C31.9806 31.0205 31.8978 30.6488 31.9671 30.2349C32.102 29.3909 32.7881 28.801 33.6366 28.801C34.0597 28.801 34.4035 28.9414 34.6303 29.2066C34.858 29.4746 34.9482 29.8485 34.8823 30.2607Z" fill="#179BD7"/>
<path d="M16.9832 21.6276L17.3657 19.1981L16.5137 19.1784H12.4453L15.2727 1.25069C15.2813 1.19656 15.31 1.1461 15.3516 1.11027C15.3933 1.07444 15.4468 1.05469 15.5024 1.05469H22.3624C24.6399 1.05469 26.2114 1.5286 27.0321 2.464C27.4167 2.90282 27.6618 3.36137 27.7803 3.866C27.9045 4.39552 27.9068 5.02813 27.7853 5.79971L27.7765 5.85603V6.35041L28.1613 6.56836C28.4853 6.74022 28.7426 6.93695 28.9401 7.16222C29.2694 7.5374 29.4822 8.01424 29.5721 8.57957C29.6649 9.161 29.6342 9.85286 29.4822 10.6361C29.3066 11.5372 29.0228 12.3219 28.6397 12.964C28.287 13.5557 27.838 14.0463 27.3049 14.4268C26.7959 14.788 26.191 15.0623 25.5072 15.2379C24.8445 15.4103 24.0891 15.4975 23.2605 15.4975H22.7266C22.3449 15.4975 21.974 15.635 21.683 15.8815C21.3912 16.1331 21.198 16.4767 21.1388 16.8527L21.0986 17.0714L20.4228 21.3533L20.3921 21.5106C20.3841 21.5605 20.3702 21.5853 20.3498 21.6021C20.3314 21.6173 20.3051 21.6276 20.2794 21.6276H16.9832Z" fill="#253B80"/>
<path d="M28.5257 5.91602C28.5053 6.04692 28.4819 6.18075 28.4556 6.31825C27.5507 10.9631 24.4558 12.5677 20.5027 12.5677H18.4901C18.0067 12.5677 17.5993 12.9187 17.524 13.3955L16.4935 19.931L16.2017 21.7834C16.1526 22.0965 16.3941 22.3788 16.7099 22.3788H20.2798C20.7025 22.3788 21.0615 22.0716 21.128 21.6548L21.1631 21.4733L21.8354 17.208L21.8785 16.9741C21.9442 16.5558 22.304 16.2487 22.7267 16.2487H23.2606C26.7192 16.2487 29.4267 14.8445 30.2181 10.781C30.5486 9.0835 30.3775 7.66615 29.5027 6.6693C29.2381 6.36871 28.9097 6.11932 28.5257 5.91602Z" fill="#179BD7"/>
<path d="M27.5788 5.53761C27.4407 5.49738 27.298 5.46081 27.1517 5.4279C27.0047 5.39573 26.854 5.36721 26.699 5.34234C26.1563 5.25458 25.5618 5.21289 24.9247 5.21289H19.5479C19.4154 5.21289 19.2898 5.24287 19.1771 5.297C18.9291 5.4162 18.7449 5.65098 18.7003 5.93839L17.5563 13.1832L17.5234 13.3945C17.5988 12.9177 18.0062 12.5666 18.4895 12.5666H20.5022C24.4552 12.5666 27.5504 10.9613 28.455 6.31723C28.482 6.17974 28.5047 6.0459 28.5251 5.915C28.2963 5.79359 28.0483 5.68973 27.7814 5.60123C27.7157 5.57929 27.6477 5.55809 27.5788 5.53761Z" fill="#222D65"/>
<path d="M18.6991 5.93733C18.7437 5.6499 18.9282 5.41514 19.1759 5.29665C19.2894 5.24253 19.4145 5.21255 19.5467 5.21255H24.9237C25.5608 5.21255 26.1553 5.25423 26.6979 5.342C26.853 5.36686 27.0037 5.39539 27.1507 5.42756C27.297 5.46048 27.4395 5.49705 27.5779 5.53726C27.6465 5.55775 27.7145 5.57895 27.781 5.60017C28.048 5.68865 28.296 5.79324 28.5248 5.91392C28.7941 4.19743 28.5227 3.02873 27.5947 1.97046C26.5715 0.805421 24.7248 0.306641 22.3618 0.306641H15.5016C15.0189 0.306641 14.6073 0.657673 14.5326 1.13525L11.6753 19.2472C11.6189 19.6055 11.8953 19.9289 12.2566 19.9289H16.4919L17.5553 13.1821L18.6991 5.93733Z" fill="#253B80"/>
</svg>
