<svg width="39" height="40" viewBox="0 0 39 40" fill="none" xmlns="http://www.w3.org/2000/svg">
<rect opacity="0.15" x="0.75" y="1.30664" width="37.5" height="37.5" rx="18.75" stroke="#33312C" stroke-width="1.5"/>
<g clip-path="url(#clip0_2028_653)">
<path d="M28.1884 10.776L11.6725 17.2604C11.3583 17.3838 11.3469 17.8242 11.6542 17.9637L15.3054 19.6206C15.4043 19.6655 15.4794 19.7503 15.512 19.8539L17.0785 24.8391C17.1576 25.0908 17.4619 25.1884 17.6726 25.0297L20.3993 22.9754C20.5295 22.8773 20.7076 22.8727 20.8428 22.9638L25.4158 26.049C25.6439 26.2028 25.955 26.0723 26.005 25.8018L28.7035 11.201C28.758 10.9063 28.4673 10.6665 28.1884 10.776ZM18.1802 20.3276L17.6875 23.1285L16.4156 19.1182L25.1352 13.7062L18.1802 20.3276ZM13.9226 21.0591C13.782 20.9185 13.5542 20.9185 13.4136 21.0591L11.3965 23.076C11.2559 23.2166 11.2559 23.4444 11.3965 23.5851C11.5371 23.7257 11.7649 23.7257 11.9056 23.5851L13.9226 21.5681C14.0632 21.4275 14.0632 21.1997 13.9226 21.0591ZM14.9578 25.4392L12.9409 27.4561C12.8003 27.5967 12.8003 27.8246 12.9409 27.9652C13.0815 28.1058 13.3093 28.1058 13.45 27.9652L15.4669 25.9482C15.6075 25.8076 15.6075 25.5798 15.4669 25.4392C15.3262 25.2986 15.0984 25.2986 14.9578 25.4392Z" fill="#33312C"/>
<path d="M20.8237 25.4394L18.8067 27.4563C18.666 27.597 18.666 27.8248 18.8067 27.9654C18.9473 28.106 19.1751 28.106 19.3157 27.9654L21.3328 25.9485C21.4734 25.8079 21.4734 25.5801 21.3328 25.4394C21.1922 25.2988 20.9644 25.2988 20.8237 25.4394Z" fill="#33312C"/>
<path d="M28.1864 10.777L11.6705 17.2614C11.3563 17.3847 11.3449 17.8252 11.6523 17.9647L15.3035 19.6215C15.4024 19.6665 15.4775 19.7513 15.51 19.8549L17.0765 24.8401C17.1556 25.0918 17.46 25.1894 17.6707 25.0306L20.3974 22.9764C20.5276 22.8783 20.7057 22.8737 20.8408 22.9648L25.4139 26.0499C25.642 26.2038 25.953 26.0733 26.003 25.8027L28.7016 11.2019C28.756 10.9072 28.4654 10.6675 28.1864 10.777ZM18.1782 20.3286L17.6855 23.1295L16.4137 19.1192L25.1332 13.7072L18.1782 20.3286ZM13.9207 21.0601C13.7801 20.9194 13.5523 20.9194 13.4116 21.0601L11.3945 23.077C11.2539 23.2176 11.2539 23.4454 11.3945 23.586C11.5351 23.7267 11.7629 23.7267 11.9036 23.586L13.9207 21.5691C14.0613 21.4285 14.0613 21.2007 13.9207 21.0601ZM14.9559 25.4402L12.939 27.4571C12.7983 27.5977 12.7983 27.8255 12.939 27.9662C13.0796 28.1068 13.3074 28.1068 13.448 27.9662L15.4649 25.9492C15.6056 25.8086 15.6056 25.5808 15.4649 25.4402C15.3243 25.2996 15.0965 25.2996 14.9559 25.4402Z" fill="#33312C"/>
<path d="M20.8218 25.4404L18.8047 27.4573C18.6641 27.5979 18.6641 27.8258 18.8047 27.9664C18.9453 28.107 19.1731 28.107 19.3137 27.9664L21.3309 25.9495C21.4715 25.8088 21.4715 25.581 21.3309 25.4404C21.1902 25.2998 20.9624 25.2998 20.8218 25.4404Z" fill="#33312C"/>
</g>
<defs>
<clipPath id="clip0_2028_653">
<rect width="18" height="18" fill="white" transform="translate(11 10.4102)"/>
</clipPath>
</defs>
</svg>
